<svg width="45" height="31" viewBox="0 0 45 31" fill="none" xmlns="http://www.w3.org/2000/svg">
<path d="M39.8442 8.37584C41.7118 10.2604 43.4238 12.9273 43.0168 16.3417C42.1273 19.473 40.4321 22.1141 36.9945 24.0833L36.6578 23.7767C39.6399 21.9394 41.6818 19.5047 42.2652 16.7466C42.9365 13.5727 41.5749 10.4734 38.7445 8.03903C35.9282 5.61682 31.7823 3.93891 27.1271 3.24541C25.0194 2.93141 22.9026 2.77489 20.8129 2.82125C23.1106 2.73207 25.4381 2.8533 27.7089 3.19159C32.8585 3.95875 35.9399 5.48495 39.8442 8.37584ZM13.9765 3.74133C14.5358 3.6083 15.103 3.48909 15.6767 3.3838C15.1213 3.49796 14.5702 3.63032 14.0241 3.78182L13.9765 3.74133Z" stroke="#7F8082" stroke-width="2"/>
<path d="M28.1797 14.2666L28.1779 14.2085L28.1694 14.151C27.987 12.9128 27.3509 11.7849 26.3907 10.9315C25.4324 10.0797 24.2002 9.54301 22.8897 9.38331C21.8844 9.26081 21.0767 9.30803 20.3138 9.49406L20.2388 9.42732C21.1208 9.20699 22.0538 9.14699 22.9785 9.25968C24.4352 9.4372 25.7678 10.0304 26.7767 10.9271C27.7838 11.8221 28.4083 12.9643 28.5858 14.1683C28.7061 14.9852 28.6185 15.8144 28.3301 16.5983L27.9968 16.2953C28.0653 16.0899 28.1161 15.8859 28.1484 15.6661C28.2094 15.2502 28.1962 14.8138 28.1804 14.291L28.1797 14.2666Z" stroke="#7F8082" stroke-width="2"/>
<path d="M21.7619 16.0586L32.9467 26.0492C31.0811 26.6982 29.2394 27.1631 27.0238 27.4207C24.1729 27.7521 21.2374 27.7503 18.3878 27.4153C15.5376 27.0803 12.8396 26.4198 10.4476 25.4784C8.05396 24.5363 6.03101 23.3382 4.47847 21.9696C2.92621 20.6012 1.89212 19.1055 1.37982 17.5835C0.870687 16.0709 0.873374 14.5253 1.38808 13.0128C1.90601 11.491 2.9458 9.99611 4.50336 8.62927C5.91896 7.38702 7.70436 6.40761 9.87982 5.51546L21.7594 16.0564L21.7619 16.0586Z" stroke="#7F8082" stroke-width="2"/>
<path fill-rule="evenodd" clip-rule="evenodd" d="M37.0774 30.1579L4.76045 1.66917L5.51953 1L37.8364 29.4888L37.0774 30.1579Z" fill="#7F8082" stroke="#7F8082"/>
<path d="M21.1588 15.2608L25.4061 19.2253C24.501 19.7464 23.5082 19.9208 22.1221 19.9208C20.3401 19.9208 18.6526 19.2956 17.4262 18.2145C16.2039 17.137 15.5459 15.7045 15.5459 14.242C15.5459 13.5846 15.7191 13.1756 16.0179 12.7872C16.2599 12.4725 16.5703 12.1837 16.9891 11.8148L21.1588 15.2608Z" stroke="#7F8082" stroke-width="2"/>
</svg>
